<svg width="190" height="42" viewBox="0 0 190 42" fill="none" xmlns="http://www.w3.org/2000/svg">
<path d="M14.1738 0.0284824C15.8031 -0.187727 18.1891 2.44153 18.9535 3.77353C24.1039 12.7308 15.5212 23.1049 5.80339 19.6996C4.18568 19.136 0.16651 16.4179 0.00435333 14.6496C-0.134638 13.1362 3.09305 8.07069 4.18182 6.7773C6.07751 4.5264 11.2704 0.41457 14.1738 0.0284824Z" fill="#E4E24E"/>
<path d="M27.1618 0.0207582C28.8219 -0.284251 33.7368 2.85464 35.1268 4.00518C37.4935 5.96265 40.2154 9.48377 41.3196 12.3524C42.1806 14.584 42.447 14.6612 40.8679 16.5299C33.123 25.6995 18.0501 17.2055 22.3627 5.45687C22.9804 3.77353 25.3201 0.360515 27.1618 0.0207582Z" fill="#E4E24E"/>
<path d="M30.5709 21.7073C33.3314 21.3289 35.8835 21.6957 38.2888 23.1127C39.4587 23.8038 42.1651 26.1859 42.0377 27.5797C41.8176 29.9889 37.9027 35.3787 36.0688 37.1006C34.7638 38.3284 28.7409 42.3128 27.1618 41.9846C26.5402 41.8534 24.4476 39.8534 23.9843 39.2666C19.0153 32.9811 22.5673 22.7999 30.5709 21.7073Z" fill="#E4E24E"/>
<path d="M7.35547 21.7034C19.7991 19.7576 25.3819 35.4791 14.9421 41.9846C10.3245 40.9461 5.88061 37.6025 3.15483 33.7957C2.25911 32.5448 -0.161661 28.514 0.058409 27.1087C0.405888 24.8964 5.24357 22.0355 7.35161 21.7034H7.35547Z" fill="#E4E24E"/>
<path d="M50.8561 36.5019V6.26188H56.1481V36.5019H50.8561Z" fill="white"/>
<path d="M63.4462 36.5019V13.1079C63.4462 10.7559 64.0902 8.96388 65.3782 7.73188C66.6942 6.47188 68.6542 5.84188 71.2582 5.84188C71.8462 5.84188 72.3362 5.86988 72.7282 5.92588C73.1202 5.98188 73.4982 6.06588 73.8622 6.17788V10.2939C73.6662 10.2099 73.4142 10.1539 73.1062 10.1259C72.7982 10.0699 72.4482 10.0419 72.0562 10.0419C70.9362 10.0419 70.0962 10.3219 69.5362 10.8819C69.0042 11.4139 68.7382 12.1979 68.7382 13.2339V36.5019H63.4462ZM59.5822 19.2399V15.0819H73.4002V19.2399H59.5822Z" fill="white"/>
<path d="M86.1118 36.9219C83.8438 36.9219 81.8418 36.4459 80.1058 35.4939C78.3978 34.5419 77.0678 33.2259 76.1158 31.5459C75.1638 29.8379 74.6878 27.8919 74.6878 25.7079C74.6878 23.5239 75.1638 21.6059 76.1158 19.9539C77.0678 18.3019 78.3978 17.0139 80.1058 16.0899C81.8418 15.1379 83.8438 14.6619 86.1118 14.6619C88.4078 14.6619 90.4098 15.1379 92.1178 16.0899C93.8258 17.0139 95.1558 18.3019 96.1078 19.9539C97.0598 21.6059 97.5358 23.5239 97.5358 25.7079C97.5358 27.8919 97.0458 29.8379 96.0658 31.5459C95.1138 33.2259 93.7838 34.5419 92.0758 35.4939C90.3678 36.4459 88.3798 36.9219 86.1118 36.9219ZM86.1118 32.6799C87.2318 32.6799 88.2398 32.3999 89.1358 31.8399C90.0318 31.2519 90.7318 30.4399 91.2358 29.4039C91.7398 28.3399 91.9918 27.0939 91.9918 25.6659C91.9918 23.5659 91.4318 21.9139 90.3118 20.7099C89.2198 19.5059 87.8198 18.9039 86.1118 18.9039C84.4038 18.9039 82.9898 19.5059 81.8698 20.7099C80.7498 21.9139 80.1898 23.5659 80.1898 25.6659C80.1898 27.0939 80.4418 28.3399 80.9458 29.4039C81.4778 30.4399 82.1778 31.2519 83.0458 31.8399C83.9418 32.3999 84.9638 32.6799 86.1118 32.6799Z" fill="white"/>
<path d="M111.172 36.9219C108.904 36.9219 106.902 36.4459 105.166 35.4939C103.458 34.5419 102.128 33.2259 101.176 31.5459C100.224 29.8379 99.7483 27.8919 99.7483 25.7079C99.7483 23.5239 100.224 21.6059 101.176 19.9539C102.128 18.3019 103.458 17.0139 105.166 16.0899C106.902 15.1379 108.904 14.6619 111.172 14.6619C113.468 14.6619 115.47 15.1379 117.178 16.0899C118.886 17.0139 120.216 18.3019 121.168 19.9539C122.12 21.6059 122.596 23.5239 122.596 25.7079C122.596 27.8919 122.106 29.8379 121.126 31.5459C120.174 33.2259 118.844 34.5419 117.136 35.4939C115.428 36.4459 113.44 36.9219 111.172 36.9219ZM111.172 32.6799C112.292 32.6799 113.3 32.3999 114.196 31.8399C115.092 31.2519 115.792 30.4399 116.296 29.4039C116.8 28.3399 117.052 27.0939 117.052 25.6659C117.052 23.5659 116.492 21.9139 115.372 20.7099C114.28 19.5059 112.88 18.9039 111.172 18.9039C109.464 18.9039 108.05 19.5059 106.93 20.7099C105.81 21.9139 105.25 23.5659 105.25 25.6659C105.25 27.0939 105.502 28.3399 106.006 29.4039C106.538 30.4399 107.238 31.2519 108.106 31.8399C109.002 32.3999 110.024 32.6799 111.172 32.6799Z" fill="white"/>
<path d="M136.233 36.9219C133.965 36.9219 131.963 36.4459 130.227 35.4939C128.519 34.5419 127.189 33.2259 126.237 31.5459C125.285 29.8379 124.809 27.8919 124.809 25.7079C124.809 23.5239 125.285 21.6059 126.237 19.9539C127.189 18.3019 128.519 17.0139 130.227 16.0899C131.963 15.1379 133.965 14.6619 136.233 14.6619C138.529 14.6619 140.531 15.1379 142.239 16.0899C143.947 17.0139 145.277 18.3019 146.229 19.9539C147.181 21.6059 147.657 23.5239 147.657 25.7079C147.657 27.8919 147.167 29.8379 146.187 31.5459C145.235 33.2259 143.905 34.5419 142.197 35.4939C140.489 36.4459 138.501 36.9219 136.233 36.9219ZM136.233 32.6799C137.353 32.6799 138.361 32.3999 139.257 31.8399C140.153 31.2519 140.853 30.4399 141.357 29.4039C141.861 28.3399 142.113 27.0939 142.113 25.6659C142.113 23.5659 141.553 21.9139 140.433 20.7099C139.341 19.5059 137.941 18.9039 136.233 18.9039C134.525 18.9039 133.111 19.5059 131.991 20.7099C130.871 21.9139 130.311 23.5659 130.311 25.6659C130.311 27.0939 130.563 28.3399 131.067 29.4039C131.599 30.4399 132.299 31.2519 133.167 31.8399C134.063 32.3999 135.085 32.6799 136.233 32.6799Z" fill="white"/>
<path d="M161.293 36.9219C159.025 36.9219 157.023 36.4459 155.287 35.4939C153.579 34.5419 152.249 33.2259 151.297 31.5459C150.345 29.8379 149.869 27.8919 149.869 25.7079C149.869 23.5239 150.345 21.6059 151.297 19.9539C152.249 18.3019 153.579 17.0139 155.287 16.0899C157.023 15.1379 159.025 14.6619 161.293 14.6619C163.589 14.6619 165.591 15.1379 167.299 16.0899C169.007 17.0139 170.337 18.3019 171.289 19.9539C172.241 21.6059 172.717 23.5239 172.717 25.7079C172.717 27.8919 172.227 29.8379 171.247 31.5459C170.295 33.2259 168.965 34.5419 167.257 35.4939C165.549 36.4459 163.561 36.9219 161.293 36.9219ZM161.293 32.6799C162.413 32.6799 163.421 32.3999 164.317 31.8399C165.213 31.2519 165.913 30.4399 166.417 29.4039C166.921 28.3399 167.173 27.0939 167.173 25.6659C167.173 23.5659 166.613 21.9139 165.493 20.7099C164.401 19.5059 163.001 18.9039 161.293 18.9039C159.585 18.9039 158.171 19.5059 157.051 20.7099C155.931 21.9139 155.371 23.5659 155.371 25.6659C155.371 27.0939 155.623 28.3399 156.127 29.4039C156.659 30.4399 157.359 31.2519 158.227 31.8399C159.123 32.3999 160.145 32.6799 161.293 32.6799Z" fill="white"/>
<path d="M185.736 36.9219C183.104 36.9219 181.158 36.3059 179.898 35.0739C178.666 33.8139 178.05 31.9379 178.05 29.4459V10.2099L183.384 8.23588V29.5719C183.384 30.6079 183.664 31.3779 184.224 31.8819C184.784 32.3859 185.666 32.6379 186.87 32.6379C187.346 32.6379 187.766 32.6099 188.13 32.5539C188.522 32.4699 188.886 32.3719 189.222 32.2599V36.3759C188.886 36.5439 188.41 36.6699 187.794 36.7539C187.178 36.8659 186.492 36.9219 185.736 36.9219ZM173.934 19.2399V15.0819H189.222V19.2399H173.934Z" fill="white"/>
</svg>
